[NULL @ 0x5555836026f0] Unable to find a suitable output format for '04.xvid'
Output #0, mpeg, to '04.xvid':
    Stream #0:0: Video: mpeg1video, yuv420p, 640x480, q=2-31, 400 kb/s, 25 tbn
[mpeg @ 0x555583603700] VBV buffer size not set, using default size of 230KB
If you want the mpeg file to be compliant to some specification
Like DVD, VCD or others, make sure you set the correct buffer size
Could not deduce output format from file extension: using MPEG.
pts:0 pts_time:0 dts:-3600 dts_time:-0.04 duration:0 duration_time:0 stream_index:0
pts:3600 pts_time:0.04 dts:0 dts_time:0 duration:0 duration_time:0 stream_index:0
pts:7200 pts_time:0.08 dts:3600 dts_time:0.04 duration:0 duration_time:0 stream_index:0
pts:10800 pts_time:0.12 dts:7200 dts_time:0.08 duration:0 duration_time:0 stream_index:0
pts:14400 pts_time:0.16 dts:10800 dts_time:0.12 duration:0 duration_time:0 stream_index:0
pts:18000 pts_time:0.2 dts:14400 dts_time:0.16 duration:0 duration_time:0 stream_index:0
pts:21600 pts_time:0.24 dts:18000 dts_time:0.2 duration:0 duration_time:0 stream_index:0
pts:25200 pts_time:0.28 dts:21600 dts_time:0.24 duration:0 duration_time:0 stream_index:0
pts:28800 pts_time:0.32 dts:25200 dts_time:0.28 duration:0 duration_time:0 stream_index:0
pts:32400 pts_time:0.36 dts:28800 dts_time:0.32 duration:0 duration_time:0 stream_index:0
[mpeg @ 0x555583603700] buffer underflow st=0 bufi=2707 size=4059
pts:36000 pts_time:0.4 dts:32400 dts_time:0.36 duration:0 duration_time:0 stream_index:0
[mpeg @ 0x555583603700] buffer underflow st=0 bufi=680 size=5613
[mpeg @ 0x555583603700] buffer underflow st=0 bufi=2721 size=5613
[mpeg @ 0x555583603700] buffer underflow st=0 bufi=4762 size=5613
pts:39600 pts_time:0.44 dts:36000 dts_time:0.4 duration:0 duration_time:0 stream_index:0
[mpeg @ 0x555583603700] buffer underflow st=0 bufi=1181 size=10096
[mpeg @ 0x555583603700] buffer underflow st=0 bufi=3222 size=10096
[mpeg @ 0x555583603700] buffer underflow st=0 bufi=5263 size=10096
[mpeg @ 0x555583603700] buffer underflow st=0 bufi=7304 size=10096
[mpeg @ 0x555583603700] buffer underflow st=0 bufi=9345 size=10096
pts:43200 pts_time:0.48 dts:39600 dts_time:0.44 duration:0 duration_time:0 stream_index:0
[mpeg @ 0x555583603700] buffer underflow st=0 bufi=1281 size=1468
pts:46800 pts_time:0.52 dts:43200 dts_time:0.48 duration:0 duration_time:0 stream_index:0
pts:50400 pts_time:0.56 dts:46800 dts_time:0.52 duration:0 duration_time:0 stream_index:0
[mpeg @ 0x555583603700] buffer underflow st=0 bufi=441 size=2279
pts:54000 pts_time:0.6 dts:50400 dts_time:0.56 duration:0 duration_time:0 stream_index:0
[mpeg @ 0x555583603700] buffer underflow st=0 bufi=194 size=6750
[mpeg @ 0x555583603700] buffer underflow st=0 bufi=2235 size=6750
[mpeg @ 0x555583603700] buffer underflow st=0 bufi=4276 size=6750
[mpeg @ 0x555583603700] buffer underflow st=0 bufi=6317 size=6750
pts:57600 pts_time:0.64 dts:54000 dts_time:0.6 duration:0 duration_time:0 stream_index:0
[mpeg @ 0x555583603700] buffer underflow st=0 bufi=1599 size=1897
pts:61200 pts_time:0.68 dts:57600 dts_time:0.64 duration:0 duration_time:0 stream_index:0
pts:64800 pts_time:0.72 dts:61200 dts_time:0.68 duration:0 duration_time:0 stream_index:0
[mpeg @ 0x555583603700] buffer underflow st=0 bufi=183 size=1540
pts:68400 pts_time:0.76 dts:64800 dts_time:0.72 duration:0 duration_time:0 stream_index:0
[mpeg @ 0x555583603700] buffer underflow st=0 bufi=675 size=1576
pts:72000 pts_time:0.8 dts:68400 dts_time:0.76 duration:0 duration_time:0 stream_index:0
[mpeg @ 0x555583603700] buffer underflow st=0 bufi=1131 size=2405
pts:75600 pts_time:0.84 dts:72000 dts_time:0.8 duration:0 duration_time:0 stream_index:0
[mpeg @ 0x555583603700] buffer underflow st=0 bufi=758 size=5727
[mpeg @ 0x555583603700] buffer underflow st=0 bufi=2799 size=5727
[mpeg @ 0x555583603700] buffer underflow st=0 bufi=4840 size=5727
pts:79200 pts_time:0.88 dts:75600 dts_time:0.84 duration:0 duration_time:0 stream_index:0
[mpeg @ 0x555583603700] buffer underflow st=0 bufi=1145 size=4641
[mpeg @ 0x555583603700] buffer underflow st=0 bufi=3186 size=4641
pts:82800 pts_time:0.92 dts:79200 dts_time:0.88 duration:0 duration_time:0 stream_index:0
[mpeg @ 0x555583603700] buffer underflow st=0 bufi=577 size=10227
[mpeg @ 0x555583603700] buffer underflow st=0 bufi=2618 size=10227
[mpeg @ 0x555583603700] buffer underflow st=0 bufi=4659 size=10227
[mpeg @ 0x555583603700] buffer underflow st=0 bufi=6700 size=10227
[mpeg @ 0x555583603700] buffer underflow st=0 bufi=8741 size=10227
pts:86400 pts_time:0.96 dts:82800 dts_time:0.92 duration:0 duration_time:0 stream_index:0
pts:90000 pts_time:1 dts:86400 dts_time:0.96 duration:0 duration_time:0 stream_index:0
[mpeg @ 0x555583603700] buffer underflow st=0 bufi=0 size=1674
pts:93600 pts_time:1.04 dts:90000 dts_time:1 duration:0 duration_time:0 stream_index:0
[mpeg @ 0x555583603700] buffer underflow st=0 bufi=358 size=1248
pts:97200 pts_time:1.08 dts:93600 dts_time:1.04 duration:0 duration_time:0 stream_index:0
[mpeg @ 0x555583603700] buffer underflow st=0 bufi=1142 size=1797
pts:100800 pts_time:1.12 dts:97200 dts_time:1.08 duration:0 duration_time:0 stream_index:0
pts:104400 pts_time:1.16 dts:100800 dts_time:1.12 duration:0 duration_time:0 stream_index:0
[mpeg @ 0x555583603700] buffer underflow st=0 bufi=66 size=5155
[mpeg @ 0x555583603700] buffer underflow st=0 bufi=2107 size=5155
[mpeg @ 0x555583603700] buffer underflow st=0 bufi=4148 size=5155
pts:108000 pts_time:1.2 dts:104400 dts_time:1.16 duration:0 duration_time:0 stream_index:0
[mpeg @ 0x555583603700] buffer underflow st=0 bufi=1025 size=2007
pts:111600 pts_time:1.24 dts:108000 dts_time:1.2 duration:0 duration_time:0 stream_index:0
[mpeg @ 0x555583603700] buffer underflow st=0 bufi=1050 size=1461
pts:115200 pts_time:1.28 dts:111600 dts_time:1.24 duration:0 duration_time:0 stream_index:0
pts:118800 pts_time:1.32 dts:115200 dts_time:1.28 duration:0 duration_time:0 stream_index:0
[mpeg @ 0x555583603700] buffer underflow st=0 bufi=429 size=1327
pts:122400 pts_time:1.36 dts:118800 dts_time:1.32 duration:0 duration_time:0 stream_index:0
[mpeg @ 0x555583603700] buffer underflow st=0 bufi=1134 size=2375
pts:126000 pts_time:1.4 dts:122400 dts_time:1.36 duration:0 duration_time:0 stream_index:0
[mpeg @ 0x555583603700] buffer underflow st=0 bufi=791 size=15104
[mpeg @ 0x555583603700] buffer underflow st=0 bufi=2832 size=15104
[mpeg @ 0x555583603700] buffer underflow st=0 bufi=4873 size=15104
[mpeg @ 0x555583603700] buffer underflow st=0 bufi=6914 size=15104
[mpeg @ 0x555583603700] buffer underflow st=0 bufi=8955 size=15104
[mpeg @ 0x555583603700] buffer underflow st=0 bufi=10996 size=15104
[mpeg @ 0x555583603700] buffer underflow st=0 bufi=13037 size=15104
[mpeg @ 0x555583603700] buffer underflow st=0 bufi=15078 size=15104
pts:129600 pts_time:1.44 dts:126000 dts_time:1.4 duration:0 duration_time:0 stream_index:0
pts:133200 pts_time:1.48 dts:129600 dts_time:1.44 duration:0 duration_time:0 stream_index:0
[mpeg @ 0x555583603700] buffer underflow st=0 bufi=1612 size=4811
[mpeg @ 0x555583603700] buffer underflow st=0 bufi=3653 size=4811
pts:136800 pts_time:1.52 dts:133200 dts_time:1.48 duration:0 duration_time:0 stream_index:0
[mpeg @ 0x555583603700] buffer underflow st=0 bufi=874 size=4156
[mpeg @ 0x555583603700] buffer underflow st=0 bufi=2915 size=4156
pts:140400 pts_time:1.56 dts:136800 dts_time:1.52 duration:0 duration_time:0 stream_index:0
pts:144000 pts_time:1.6 dts:140400 dts_time:1.56 duration:0 duration_time:0 stream_index:0
[mpeg @ 0x555583603700] buffer underflow st=0 bufi=119 size=1317
pts:147600 pts_time:1.64 dts:144000 dts_time:1.6 duration:0 duration_time:0 stream_index:0
[mpeg @ 0x555583603700] buffer underflow st=0 bufi=834 size=2129
pts:151200 pts_time:1.68 dts:147600 dts_time:1.64 duration:0 duration_time:0 stream_index:0
[mpeg @ 0x555583603700] buffer underflow st=0 bufi=737 size=1200
pts:154800 pts_time:1.72 dts:151200 dts_time:1.68 duration:0 duration_time:0 stream_index:0
pts:158400 pts_time:1.76 dts:154800 dts_time:1.72 duration:0 duration_time:0 stream_index:0
[mpeg @ 0x555583603700] buffer underflow st=0 bufi=319 size=1190
pts:162000 pts_time:1.8 dts:158400 dts_time:1.76 duration:0 duration_time:0 stream_index:0
[mpeg @ 0x555583603700] buffer underflow st=0 bufi=1161 size=2043
pts:165600 pts_time:1.84 dts:162000 dts_time:1.8 duration:0 duration_time:0 stream_index:0
[mpeg @ 0x555583603700] buffer underflow st=0 bufi=1150 size=5390
[mpeg @ 0x555583603700] buffer underflow st=0 bufi=3191 size=5390
[mpeg @ 0x555583603700] buffer underflow st=0 bufi=5232 size=5390
pts:169200 pts_time:1.88 dts:165600 dts_time:1.84 duration:0 duration_time:0 stream_index:0
[mpeg @ 0x555583603700] buffer underflow st=0 bufi=1874 size=10468
[mpeg @ 0x555583603700] buffer underflow st=0 bufi=3915 size=10468
[mpeg @ 0x555583603700] buffer underflow st=0 bufi=5956 size=10468
[mpeg @ 0x555583603700] buffer underflow st=0 bufi=7997 size=10468
[mpeg @ 0x555583603700] buffer underflow st=0 bufi=10038 size=10468
pts:172800 pts_time:1.92 dts:169200 dts_time:1.88 duration:0 duration_time:0 stream_index:0
pts:176400 pts_time:1.96 dts:172800 dts_time:1.92 duration:0 duration_time:0 stream_index:0
[mpeg @ 0x555583603700] buffer underflow st=0 bufi=730 size=946
pts:180000 pts_time:2 dts:176400 dts_time:1.96 duration:0 duration_time:0 stream_index:0
pts:183600 pts_time:2.04 dts:180000 dts_time:2 duration:0 duration_time:0 stream_index:0
[mpeg @ 0x555583603700] buffer underflow st=0 bufi=734 size=867
pts:187200 pts_time:2.08 dts:183600 dts_time:2.04 duration:0 duration_time:0 stream_index:0
[mpeg @ 0x555583603700] buffer underflow st=0 bufi=1899 size=2328
pts:190800 pts_time:2.12 dts:187200 dts_time:2.08 duration:0 duration_time:0 stream_index:0
pts:194400 pts_time:2.16 dts:190800 dts_time:2.12 duration:0 duration_time:0 stream_index:0
[mpeg @ 0x555583603700] buffer underflow st=0 bufi=1426 size=3594
[mpeg @ 0x555583603700] buffer underflow st=0 bufi=3467 size=3594
pts:198000 pts_time:2.2 dts:194400 dts_time:2.16 duration:0 duration_time:0 stream_index:0
[mpeg @ 0x555583603700] buffer underflow st=0 bufi=1905 size=5259
[mpeg @ 0x555583603700] buffer underflow st=0 bufi=3946 size=5259
pts:201600 pts_time:2.24 dts:198000 dts_time:2.2 duration:0 duration_time:0 stream_index:0
[mpeg @ 0x555583603700] buffer underflow st=0 bufi=719 size=4142
[mpeg @ 0x555583603700] buffer underflow st=0 bufi=2760 size=4142
pts:205200 pts_time:2.28 dts:201600 dts_time:2.24 duration:0 duration_time:0 stream_index:0
[mpeg @ 0x555583603700] buffer underflow st=0 bufi=650 size=784
pts:208800 pts_time:2.32 dts:205200 dts_time:2.28 duration:0 duration_time:0 stream_index:0
pts:212400 pts_time:2.36 dts:208800 dts_time:2.32 duration:0 duration_time:0 stream_index:0
[mpeg @ 0x555583603700] buffer underflow st=0 bufi=1022 size=11940
[mpeg @ 0x555583603700] buffer underflow st=0 bufi=3063 size=11940
[mpeg @ 0x555583603700] buffer underflow st=0 bufi=5104 size=11940
[mpeg @ 0x555583603700] buffer underflow st=0 bufi=7145 size=11940
[mpeg @ 0x555583603700] buffer underflow st=0 bufi=9186 size=11940
[mpeg @ 0x555583603700] buffer underflow st=0 bufi=11227 size=11940
pts:216000 pts_time:2.4 dts:212400 dts_time:2.36 duration:0 duration_time:0 stream_index:0
pts:219600 pts_time:2.44 dts:216000 dts_time:2.4 duration:0 duration_time:0 stream_index:0
[mpeg @ 0x555583603700] buffer underflow st=0 bufi=636 size=1004
pts:223200 pts_time:2.48 dts:219600 dts_time:2.44 duration:0 duration_time:0 stream_index:0
pts:226800 pts_time:2.52 dts:223200 dts_time:2.48 duration:0 duration_time:0 stream_index:0
[mpeg @ 0x555583603700] buffer underflow st=0 bufi=771 size=851
pts:230400 pts_time:2.56 dts:226800 dts_time:2.52 duration:0 duration_time:0 stream_index:0
[mpeg @ 0x555583603700] buffer underflow st=0 bufi=1952 size=4241
[mpeg @ 0x555583603700] buffer underflow st=0 bufi=3993 size=4241
pts:234000 pts_time:2.6 dts:230400 dts_time:2.56 duration:0 duration_time:0 stream_index:0
[mpeg @ 0x555583603700] buffer underflow st=0 bufi=1784 size=3791
pts:237600 pts_time:2.64 dts:234000 dts_time:2.6 duration:0 duration_time:0 stream_index:0
[mpeg @ 0x555583603700] buffer underflow st=0 bufi=25 size=644
pts:241200 pts_time:2.68 dts:237600 dts_time:2.64 duration:0 duration_time:0 stream_index:0
[mpeg @ 0x555583603700] buffer underflow st=0 bufi=1413 size=1454
pts:244800 pts_time:2.72 dts:241200 dts_time:2.68 duration:0 duration_time:0 stream_index:0
pts:248400 pts_time:2.76 dts:244800 dts_time:2.72 duration:0 duration_time:0 stream_index:0
[mpeg @ 0x555583603700] buffer underflow st=0 bufi=511 size=952
pts:252000 pts_time:2.8 dts:248400 dts_time:2.76 duration:0 duration_time:0 stream_index:0
pts:255600 pts_time:2.84 dts:252000 dts_time:2.8 duration:0 duration_time:0 stream_index:0
[mpeg @ 0x555583603700] buffer underflow st=0 bufi=520 size=15442
[mpeg @ 0x555583603700] buffer underflow st=0 bufi=2561 size=15442
[mpeg @ 0x555583603700] buffer underflow st=0 bufi=4602 size=15442
[mpeg @ 0x555583603700] buffer underflow st=0 bufi=6643 size=15442
[mpeg @ 0x555583603700] buffer underflow st=0 bufi=8684 size=15442
[mpeg @ 0x555583603700] buffer underflow st=0 bufi=10725 size=15442
[mpeg @ 0x555583603700] buffer underflow st=0 bufi=12766 size=15442
[mpeg @ 0x555583603700] buffer underflow st=0 bufi=14807 size=15442
pts:259200 pts_time:2.88 dts:255600 dts_time:2.84 duration:0 duration_time:0 stream_index:0
pts:262800 pts_time:2.92 dts:259200 dts_time:2.88 duration:0 duration_time:0 stream_index:0
[mpeg @ 0x555583603700] buffer underflow st=0 bufi=1249 size=2280
pts:266400 pts_time:2.96 dts:262800 dts_time:2.92 duration:0 duration_time:0 stream_index:0
pts:270000 pts_time:3 dts:266400 dts_time:2.96 duration:0 duration_time:0 stream_index:0
[mpeg @ 0x555583603700] buffer underflow st=0 bufi=897 size=4885
[mpeg @ 0x555583603700] buffer underflow st=0 bufi=2938 size=4885
pts:273600 pts_time:3.04 dts:270000 dts_time:3 duration:0 duration_time:0 stream_index:0
[mpeg @ 0x555583603700] buffer underflow st=0 bufi=85 size=4054
[mpeg @ 0x555583603700] buffer underflow st=0 bufi=2126 size=4054
pts:277200 pts_time:3.08 dts:273600 dts_time:3.04 duration:0 duration_time:0 stream_index:0
[mpeg @ 0x555583603700] buffer underflow st=0 bufi=104 size=698
pts:280800 pts_time:3.12 dts:277200 dts_time:3.08 duration:0 duration_time:0 stream_index:0
pts:284400 pts_time:3.16 dts:280800 dts_time:3.12 duration:0 duration_time:0 stream_index:0
[mpeg @ 0x555583603700] buffer underflow st=0 bufi=22 size=1640
pts:288000 pts_time:3.2 dts:284400 dts_time:3.16 duration:0 duration_time:0 stream_index:0
[mpeg @ 0x555583603700] buffer underflow st=0 bufi=414 size=1040
pts:291600 pts_time:3.24 dts:288000 dts_time:3.2 duration:0 duration_time:0 stream_index:0
pts:295200 pts_time:3.28 dts:291600 dts_time:3.24 duration:0 duration_time:0 stream_index:0
[mpeg @ 0x555583603700] buffer underflow st=0 bufi=596 size=1010
pts:298800 pts_time:3.32 dts:295200 dts_time:3.28 duration:0 duration_time:0 stream_index:0
[mpeg @ 0x555583603700] buffer underflow st=0 bufi=1618 size=15512
[mpeg @ 0x555583603700] buffer underflow st=0 bufi=3659 size=15512
[mpeg @ 0x555583603700] buffer underflow st=0 bufi=5700 size=15512
[mpeg @ 0x555583603700] buffer underflow st=0 bufi=7741 size=15512
[mpeg @ 0x555583603700] buffer underflow st=0 bufi=9782 size=15512
[mpeg @ 0x555583603700] buffer underflow st=0 bufi=11823 size=15512
[mpeg @ 0x555583603700] buffer underflow st=0 bufi=13864 size=15512
pts:302400 pts_time:3.36 dts:298800 dts_time:3.32 duration:0 duration_time:0 stream_index:0
pts:306000 pts_time:3.4 dts:302400 dts_time:3.36 duration:0 duration_time:0 stream_index:0
[mpeg @ 0x555583603700] buffer underflow st=0 bufi=203 size=3172
[mpeg @ 0x555583603700] buffer underflow st=0 bufi=2244 size=3172
pts:309600 pts_time:3.44 dts:306000 dts_time:3.4 duration:0 duration_time:0 stream_index:0
pts:313200 pts_time:3.48 dts:309600 dts_time:3.44 duration:0 duration_time:0 stream_index:0
[mpeg @ 0x555583603700] buffer underflow st=0 bufi=356 size=730
pts:316800 pts_time:3.52 dts:313200 dts_time:3.48 duration:0 duration_time:0 stream_index:0
pts:320400 pts_time:3.56 dts:316800 dts_time:3.52 duration:0 duration_time:0 stream_index:0
[mpeg @ 0x555583603700] buffer underflow st=0 bufi=1050 size=3201
[mpeg @ 0x555583603700] buffer underflow st=0 bufi=3091 size=3201
pts:324000 pts_time:3.6 dts:320400 dts_time:3.56 duration:0 duration_time:0 stream_index:0
pts:327600 pts_time:3.64 dts:324000 dts_time:3.6 duration:0 duration_time:0 stream_index:0
[mpeg @ 0x555583603700] buffer underflow st=0 bufi=1808 size=2038
pts:331200 pts_time:3.68 dts:327600 dts_time:3.64 duration:0 duration_time:0 stream_index:0
pts:334800 pts_time:3.72 dts:331200 dts_time:3.68 duration:0 duration_time:0 stream_index:0
[mpeg @ 0x555583603700] buffer underflow st=0 bufi=1686 size=1821
pts:338400 pts_time:3.76 dts:334800 dts_time:3.72 duration:0 duration_time:0 stream_index:0
pts:342000 pts_time:3.8 dts:338400 dts_time:3.76 duration:0 duration_time:0 stream_index:0
[mpeg @ 0x555583603700] buffer underflow st=0 bufi=513 size=15550
[mpeg @ 0x555583603700] buffer underflow st=0 bufi=2554 size=15550
[mpeg @ 0x555583603700] buffer underflow st=0 bufi=4595 size=15550
[mpeg @ 0x555583603700] buffer underflow st=0 bufi=6636 size=15550
[mpeg @ 0x555583603700] buffer underflow st=0 bufi=8677 size=15550
[mpeg @ 0x555583603700] buffer underflow st=0 bufi=10718 size=15550
[mpeg @ 0x555583603700] buffer underflow st=0 bufi=12759 size=15550
[mpeg @ 0x555583603700] buffer underflow st=0 bufi=14800 size=15550
pts:345600 pts_time:3.84 dts:342000 dts_time:3.8 duration:0 duration_time:0 stream_index:0
[mpeg @ 0x555583603700] buffer underflow st=0 bufi=1282 size=5902
[mpeg @ 0x555583603700] buffer underflow st=0 bufi=3323 size=5902
[mpeg @ 0x555583603700] buffer underflow st=0 bufi=5364 size=5902
pts:349200 pts_time:3.88 dts:345600 dts_time:3.84 duration:0 duration_time:0 stream_index:0
pts:352800 pts_time:3.92 dts:349200 dts_time:3.88 duration:0 duration_time:0 stream_index:0
pts:356400 pts_time:3.96 dts:352800 dts_time:3.92 duration:0 duration_time:0 stream_index:0
[mpeg @ 0x555583603700] buffer underflow st=0 bufi=234 size=1100
pts:360000 pts_time:4 dts:356400 dts_time:3.96 duration:0 duration_time:0 stream_index:0
[mpeg @ 0x555583603700] buffer underflow st=0 bufi=1166 size=27459
[mpeg @ 0x555583603700] buffer underflow st=0 bufi=3207 size=27459
[mpeg @ 0x555583603700] buffer underflow st=0 bufi=5236 size=27459
[mpeg @ 0x555583603700] buffer underflow st=0 bufi=7277 size=27459
[mpeg @ 0x555583603700] buffer underflow st=0 bufi=9318 size=27459
[mpeg @ 0x555583603700] buffer underflow st=0 bufi=11359 size=27459
[mpeg @ 0x555583603700] buffer underflow st=0 bufi=13400 size=27459
[mpeg @ 0x555583603700] buffer underflow st=0 bufi=15441 size=27459
[mpeg @ 0x555583603700] buffer underflow st=0 bufi=17482 size=27459
[mpeg @ 0x555583603700] buffer underflow st=0 bufi=19523 size=27459
[mpeg @ 0x555583603700] buffer underflow st=0 bufi=21564 size=27459
[mpeg @ 0x555583603700] buffer underflow st=0 bufi=23605 size=27459
[mpeg @ 0x555583603700] buffer underflow st=0 bufi=25646 size=27459
pts:363600 pts_time:4.04 dts:360000 dts_time:4 duration:0 duration_time:0 stream_index:0
[mpeg @ 0x555583603700] buffer underflow st=0 bufi=219 size=6225
[mpeg @ 0x555583603700] buffer underflow st=0 bufi=2260 size=6225
[mpeg @ 0x555583603700] buffer underflow st=0 bufi=4301 size=6225
pts:367200 pts_time:4.08 dts:363600 dts_time:4.04 duration:0 duration_time:0 stream_index:0
[mpeg @ 0x555583603700] buffer underflow st=0 bufi=108 size=5831
[mpeg @ 0x555583603700] buffer underflow st=0 bufi=2149 size=5831
[mpeg @ 0x555583603700] buffer underflow st=0 bufi=4190 size=5831
pts:370800 pts_time:4.12 dts:367200 dts_time:4.08 duration:0 duration_time:0 stream_index:0
[mpeg @ 0x555583603700] buffer underflow st=0 bufi=391 size=3575
[mpeg @ 0x555583603700] buffer underflow st=0 bufi=2432 size=3575
pts:374400 pts_time:4.16 dts:370800 dts_time:4.12 duration:0 duration_time:0 stream_index:0
[mpeg @ 0x555583603700] buffer underflow st=0 bufi=889 size=4817
[mpeg @ 0x555583603700] buffer underflow st=0 bufi=2930 size=4817
pts:378000 pts_time:4.2 dts:374400 dts_time:4.16 duration:0 duration_time:0 stream_index:0
[mpeg @ 0x555583603700] buffer underflow st=0 bufi=145 size=3825
[mpeg @ 0x555583603700] buffer underflow st=0 bufi=2186 size=3825
pts:381600 pts_time:4.24 dts:378000 dts_time:4.2 duration:0 duration_time:0 stream_index:0
[mpeg @ 0x555583603700] buffer underflow st=0 bufi=393 size=3953
[mpeg @ 0x555583603700] buffer underflow st=0 bufi=2434 size=3953
pts:385200 pts_time:4.28 dts:381600 dts_time:4.24 duration:0 duration_time:0 stream_index:0
[mpeg @ 0x555583603700] buffer underflow st=0 bufi=513 size=21063
[mpeg @ 0x555583603700] buffer underflow st=0 bufi=2554 size=21063
[mpeg @ 0x555583603700] buffer underflow st=0 bufi=4595 size=21063
[mpeg @ 0x555583603700] buffer underflow st=0 bufi=6636 size=21063
[mpeg @ 0x555583603700] buffer underflow st=0 bufi=8677 size=21063
[mpeg @ 0x555583603700] buffer underflow st=0 bufi=10718 size=21063
[mpeg @ 0x555583603700] buffer underflow st=0 bufi=12759 size=21063
[mpeg @ 0x555583603700] buffer underflow st=0 bufi=14800 size=21063
[mpeg @ 0x555583603700] buffer underflow st=0 bufi=16841 size=21063
[mpeg @ 0x555583603700] buffer underflow st=0 bufi=18882 size=21063
[mpeg @ 0x555583603700] buffer underflow st=0 bufi=20923 size=21063
pts:388800 pts_time:4.32 dts:385200 dts_time:4.28 duration:0 duration_time:0 stream_index:0
[mpeg @ 0x555583603700] buffer underflow st=0 bufi=1892 size=3277
pts:392400 pts_time:4.36 dts:388800 dts_time:4.32 duration:0 duration_time:0 stream_index:0
[mpeg @ 0x555583603700] buffer underflow st=0 bufi=647 size=3204
[mpeg @ 0x555583603700] buffer underflow st=0 bufi=2688 size=3204
pts:396000 pts_time:4.4 dts:392400 dts_time:4.36 duration:0 duration_time:0 stream_index:0
[mpeg @ 0x555583603700] buffer underflow st=0 bufi=1516 size=3955
[mpeg @ 0x555583603700] buffer underflow st=0 bufi=3557 size=3955
pts:399600 pts_time:4.44 dts:396000 dts_time:4.4 duration:0 duration_time:0 stream_index:0
[mpeg @ 0x555583603700] buffer underflow st=0 bufi=1634 size=2714
pts:403200 pts_time:4.48 dts:399600 dts_time:4.44 duration:0 duration_time:0 stream_index:0
[mpeg @ 0x555583603700] buffer underflow st=0 bufi=952 size=3192
[mpeg @ 0x555583603700] buffer underflow st=0 bufi=2993 size=3192
pts:406800 pts_time:4.52 dts:403200 dts_time:4.48 duration:0 duration_time:0 stream_index:0
[mpeg @ 0x555583603700] buffer underflow st=0 bufi=1833 size=3557
pts:410400 pts_time:4.56 dts:406800 dts_time:4.52 duration:0 duration_time:0 stream_index:0
[mpeg @ 0x555583603700] buffer underflow st=0 bufi=308 size=2801
[mpeg @ 0x555583603700] buffer underflow st=0 bufi=2349 size=2801
pts:414000 pts_time:4.6 dts:410400 dts_time:4.56 duration:0 duration_time:0 stream_index:0
[mpeg @ 0x555583603700] buffer underflow st=0 bufi=1580 size=2962
pts:417600 pts_time:4.64 dts:414000 dts_time:4.6 duration:0 duration_time:0 stream_index:0
[mpeg @ 0x555583603700] buffer underflow st=0 bufi=650 size=3242
[mpeg @ 0x555583603700] buffer underflow st=0 bufi=2691 size=3242
pts:421200 pts_time:4.68 dts:417600 dts_time:4.64 duration:0 duration_time:0 stream_index:0
[mpeg @ 0x555583603700] buffer underflow st=0 bufi=1481 size=3458
pts:424800 pts_time:4.72 dts:421200 dts_time:4.68 duration:0 duration_time:0 stream_index:0
[mpeg @ 0x555583603700] buffer underflow st=0 bufi=55 size=3083
[mpeg @ 0x555583603700] buffer underflow st=0 bufi=2084 size=3083
pts:428400 pts_time:4.76 dts:424800 dts_time:4.72 duration:0 duration_time:0 stream_index:0
[mpeg @ 0x555583603700] buffer underflow st=0 bufi=1033 size=15112
[mpeg @ 0x555583603700] buffer underflow st=0 bufi=3074 size=15112
[mpeg @ 0x555583603700] buffer underflow st=0 bufi=5115 size=15112
[mpeg @ 0x555583603700] buffer underflow st=0 bufi=7156 size=15112
[mpeg @ 0x555583603700] buffer underflow st=0 bufi=9197 size=15112
[mpeg @ 0x555583603700] buffer underflow st=0 bufi=11238 size=15112
[mpeg @ 0x555583603700] buffer underflow st=0 bufi=13279 size=15112
pts:432000 pts_time:4.8 dts:428400 dts_time:4.76 duration:0 duration_time:0 stream_index:0
[mpeg @ 0x555583603700] buffer underflow st=0 bufi=199 size=2123
pts:435600 pts_time:4.84 dts:432000 dts_time:4.8 duration:0 duration_time:0 stream_index:0
[mpeg @ 0x555583603700] buffer underflow st=0 bufi=108 size=3288
[mpeg @ 0x555583603700] buffer underflow st=0 bufi=2149 size=3288
pts:439200 pts_time:4.88 dts:435600 dts_time:4.84 duration:0 duration_time:0 stream_index:0
[mpeg @ 0x555583603700] buffer underflow st=0 bufi=893 size=3376
[mpeg @ 0x555583603700] buffer underflow st=0 bufi=2934 size=3376
pts:442800 pts_time:4.92 dts:439200 dts_time:4.88 duration:0 duration_time:0 stream_index:0
[mpeg @ 0x555583603700] buffer underflow st=0 bufi=1590 size=2754
pts:446400 pts_time:4.96 dts:442800 dts_time:4.92 duration:0 duration_time:0 stream_index:0
[mpeg @ 0x555583603700] buffer underflow st=0 bufi=868 size=2408
pts:450000 pts_time:5 dts:446400 dts_time:4.96 duration:0 duration_time:0 stream_index:0
[mpeg @ 0x555583603700] buffer underflow st=0 bufi=492 size=3307
[mpeg @ 0x555583603700] buffer underflow st=0 bufi=2533 size=3307
pts:453600 pts_time:5.04 dts:450000 dts_time:5 duration:0 duration_time:0 stream_index:0
[mpeg @ 0x555583603700] buffer underflow st=0 bufi=1258 size=3177
pts:457200 pts_time:5.08 dts:453600 dts_time:5.04 duration:0 duration_time:0 stream_index:0
[mpeg @ 0x555583603700] buffer underflow st=0 bufi=113 size=1651
pts:460800 pts_time:5.12 dts:457200 dts_time:5.08 duration:0 duration_time:0 stream_index:0
[mpeg @ 0x555583603700] buffer underflow st=0 bufi=494 size=3454
[mpeg @ 0x555583603700] buffer underflow st=0 bufi=2535 size=3454
pts:464400 pts_time:5.16 dts:460800 dts_time:5.12 duration:0 duration_time:0 stream_index:0
[mpeg @ 0x555583603700] buffer underflow st=0 bufi=1113 size=3583
[mpeg @ 0x555583603700] buffer underflow st=0 bufi=3154 size=3583
pts:468000 pts_time:5.2 dts:464400 dts_time:5.16 duration:0 duration_time:0 stream_index:0
[mpeg @ 0x555583603700] buffer underflow st=0 bufi=1603 size=3281
pts:471600 pts_time:5.24 dts:468000 dts_time:5.2 duration:0 duration_time:0 stream_index:0
[mpeg @ 0x555583603700] buffer underflow st=0 bufi=354 size=11873
[mpeg @ 0x555583603700] buffer underflow st=0 bufi=2395 size=11873
[mpeg @ 0x555583603700] buffer underflow st=0 bufi=4436 size=11873
[mpeg @ 0x555583603700] buffer underflow st=0 bufi=6477 size=11873
[mpeg @ 0x555583603700] buffer underflow st=0 bufi=8518 size=11873
[mpeg @ 0x555583603700] buffer underflow st=0 bufi=10559 size=11873
pts:475200 pts_time:5.28 dts:471600 dts_time:5.24 duration:0 duration_time:0 stream_index:0
[mpeg @ 0x555583603700] buffer underflow st=0 bufi=718 size=3823
[mpeg @ 0x555583603700] buffer underflow st=0 bufi=2759 size=3823
pts:478800 pts_time:5.32 dts:475200 dts_time:5.28 duration:0 duration_time:0 stream_index:0
[mpeg @ 0x555583603700] buffer underflow st=0 bufi=968 size=2868
pts:482400 pts_time:5.36 dts:478800 dts_time:5.32 duration:0 duration_time:0 stream_index:0
[mpeg @ 0x555583603700] buffer underflow st=0 bufi=132 size=3066
[mpeg @ 0x555583603700] buffer underflow st=0 bufi=2173 size=3066
pts:486000 pts_time:5.4 dts:482400 dts_time:5.36 duration:0 duration_time:0 stream_index:0
[mpeg @ 0x555583603700] buffer underflow st=0 bufi=1139 size=2209
pts:489600 pts_time:5.44 dts:486000 dts_time:5.4 duration:0 duration_time:0 stream_index:0
[mpeg @ 0x555583603700] buffer underflow st=0 bufi=962 size=3081
[mpeg @ 0x555583603700] buffer underflow st=0 bufi=3003 size=3081
pts:493200 pts_time:5.48 dts:489600 dts_time:5.44 duration:0 duration_time:0 stream_index:0
[mpeg @ 0x555583603700] buffer underflow st=0 bufi=1954 size=3352
pts:496800 pts_time:5.52 dts:493200 dts_time:5.48 duration:0 duration_time:0 stream_index:0
[mpeg @ 0x555583603700] buffer underflow st=0 bufi=634 size=2412
pts:500400 pts_time:5.56 dts:496800 dts_time:5.52 duration:0 duration_time:0 stream_index:0
[mpeg @ 0x555583603700] buffer underflow st=0 bufi=254 size=2636
[mpeg @ 0x555583603700] buffer underflow st=0 bufi=2295 size=2636
pts:504000 pts_time:5.6 dts:500400 dts_time:5.56 duration:0 duration_time:0 stream_index:0
[mpeg @ 0x555583603700] buffer underflow st=0 bufi=1691 size=2812
pts:507600 pts_time:5.64 dts:504000 dts_time:5.6 duration:0 duration_time:0 stream_index:0
[mpeg @ 0x555583603700] buffer underflow st=0 bufi=911 size=1993
pts:511200 pts_time:5.68 dts:507600 dts_time:5.64 duration:0 duration_time:0 stream_index:0
[mpeg @ 0x555583603700] buffer underflow st=0 bufi=950 size=2476
pts:514800 pts_time:5.72 dts:511200 dts_time:5.68 duration:0 duration_time:0 stream_index:0
[mpeg @ 0x555583603700] buffer underflow st=0 bufi=506 size=9425
[mpeg @ 0x555583603700] buffer underflow st=0 bufi=2547 size=9425
[mpeg @ 0x555583603700] buffer underflow st=0 bufi=4588 size=9425
[mpeg @ 0x555583603700] buffer underflow st=0 bufi=6629 size=9425
[mpeg @ 0x555583603700] buffer underflow st=0 bufi=8670 size=9425
pts:518400 pts_time:5.76 dts:514800 dts_time:5.72 duration:0 duration_time:0 stream_index:0
[mpeg @ 0x555583603700] buffer underflow st=0 bufi=1277 size=1890
pts:522000 pts_time:5.8 dts:518400 dts_time:5.76 duration:0 duration_time:0 stream_index:0
[mpeg @ 0x555583603700] buffer underflow st=0 bufi=1419 size=2200
pts:525600 pts_time:5.84 dts:522000 dts_time:5.8 duration:0 duration_time:0 stream_index:0
[mpeg @ 0x555583603700] buffer underflow st=0 bufi=1224 size=2831
pts:529200 pts_time:5.88 dts:525600 dts_time:5.84 duration:0 duration_time:0 stream_index:0
[mpeg @ 0x555583603700] buffer underflow st=0 bufi=425 size=1775
pts:532800 pts_time:5.92 dts:529200 dts_time:5.88 duration:0 duration_time:0 stream_index:0
[mpeg @ 0x555583603700] buffer underflow st=0 bufi=682 size=2927
[mpeg @ 0x555583603700] buffer underflow st=0 bufi=2723 size=2927
pts:536400 pts_time:5.96 dts:532800 dts_time:5.92 duration:0 duration_time:0 stream_index:0
[mpeg @ 0x555583603700] buffer underflow st=0 bufi=1828 size=2136
pts:540000 pts_time:6 dts:536400 dts_time:5.96 duration:0 duration_time:0 stream_index:0
[mpeg @ 0x555583603700] buffer underflow st=0 bufi=1724 size=2711
pts:543600 pts_time:6.04 dts:540000 dts_time:6 duration:0 duration_time:0 stream_index:0
[mpeg @ 0x555583603700] buffer underflow st=0 bufi=1045 size=1803
pts:547200 pts_time:6.08 dts:543600 dts_time:6.04 duration:0 duration_time:0 stream_index:0
[mpeg @ 0x555583603700] buffer underflow st=0 bufi=1274 size=1965
pts:550800 pts_time:6.12 dts:547200 dts_time:6.08 duration:0 duration_time:0 stream_index:0
[mpeg @ 0x555583603700] buffer underflow st=0 bufi=1341 size=2710
pts:554400 pts_time:6.16 dts:550800 dts_time:6.12 duration:0 duration_time:0 stream_index:0
[mpeg @ 0x555583603700] buffer underflow st=0 bufi=663 size=2004
pts:558000 pts_time:6.2 dts:554400 dts_time:6.16 duration:0 duration_time:0 stream_index:0
[mpeg @ 0x555583603700] buffer underflow st=0 bufi=691 size=10708
[mpeg @ 0x555583603700] buffer underflow st=0 bufi=2732 size=10708
[mpeg @ 0x555583603700] buffer underflow st=0 bufi=4773 size=10708
[mpeg @ 0x555583603700] buffer underflow st=0 bufi=6814 size=10708
[mpeg @ 0x555583603700] buffer underflow st=0 bufi=8855 size=10708
pts:561600 pts_time:6.24 dts:558000 dts_time:6.2 duration:0 duration_time:0 stream_index:0
[mpeg @ 0x555583603700] buffer underflow st=0 bufi=179 size=2895
[mpeg @ 0x555583603700] buffer underflow st=0 bufi=2220 size=2895
pts:565200 pts_time:6.28 dts:561600 dts_time:6.24 duration:0 duration_time:0 stream_index:0
[mpeg @ 0x555583603700] buffer underflow st=0 bufi=1357 size=2096
pts:568800 pts_time:6.32 dts:565200 dts_time:6.28 duration:0 duration_time:0 stream_index:0
[mpeg @ 0x555583603700] buffer underflow st=0 bufi=1293 size=2865
pts:572400 pts_time:6.36 dts:568800 dts_time:6.32 duration:0 duration_time:0 stream_index:0
[mpeg @ 0x555583603700] buffer underflow st=0 bufi=460 size=1776
pts:576000 pts_time:6.4 dts:572400 dts_time:6.36 duration:0 duration_time:0 stream_index:0
[mpeg @ 0x555583603700] buffer underflow st=0 bufi=716 size=1608
pts:579600 pts_time:6.44 dts:576000 dts_time:6.4 duration:0 duration_time:0 stream_index:0
[mpeg @ 0x555583603700] buffer underflow st=0 bufi=1140 size=2852
pts:583200 pts_time:6.48 dts:579600 dts_time:6.44 duration:0 duration_time:0 stream_index:0
[mpeg @ 0x555583603700] buffer underflow st=0 bufi=320 size=1855
pts:586800 pts_time:6.52 dts:583200 dts_time:6.48 duration:0 duration_time:0 stream_index:0
[mpeg @ 0x555583603700] buffer underflow st=0 bufi=497 size=2610
[mpeg @ 0x555583603700] buffer underflow st=0 bufi=2538 size=2610
pts:590400 pts_time:6.56 dts:586800 dts_time:6.52 duration:0 duration_time:0 stream_index:0
pts:594000 pts_time:6.6 dts:590400 dts_time:6.56 duration:0 duration_time:0 stream_index:0
[mpeg @ 0x555583603700] buffer underflow st=0 bufi=15 size=1779
pts:597600 pts_time:6.64 dts:594000 dts_time:6.6 duration:0 duration_time:0 stream_index:0
[mpeg @ 0x555583603700] buffer underflow st=0 bufi=268 size=2097
pts:601200 pts_time:6.68 dts:597600 dts_time:6.64 duration:0 duration_time:0 stream_index:0
[mpeg @ 0x555583603700] buffer underflow st=0 bufi=203 size=8958
[mpeg @ 0x555583603700] buffer underflow st=0 bufi=2244 size=8958
[mpeg @ 0x555583603700] buffer underflow st=0 bufi=4285 size=8958
[mpeg @ 0x555583603700] buffer underflow st=0 bufi=6326 size=8958
[mpeg @ 0x555583603700] buffer underflow st=0 bufi=8367 size=8958
pts:604800 pts_time:6.72 dts:601200 dts_time:6.68 duration:0 duration_time:0 stream_index:0
[mpeg @ 0x555583603700] buffer underflow st=0 bufi=1441 size=1835
pts:608400 pts_time:6.76 dts:604800 dts_time:6.72 duration:0 duration_time:0 stream_index:0
[mpeg @ 0x555583603700] buffer underflow st=0 bufi=1638 size=2036
pts:612000 pts_time:6.8 dts:608400 dts_time:6.76 duration:0 duration_time:0 stream_index:0
[mpeg @ 0x555583603700] buffer underflow st=0 bufi=1634 size=2707
pts:615600 pts_time:6.84 dts:612000 dts_time:6.8 duration:0 duration_time:0 stream_index:0
[mpeg @ 0x555583603700] buffer underflow st=0 bufi=959 size=1685
pts:619200 pts_time:6.88 dts:615600 dts_time:6.84 duration:0 duration_time:0 stream_index:0
[mpeg @ 0x555583603700] buffer underflow st=0 bufi=1306 size=1870
pts:622800 pts_time:6.92 dts:619200 dts_time:6.88 duration:0 duration_time:0 stream_index:0
[mpeg @ 0x555583603700] buffer underflow st=0 bufi=1468 size=2537
pts:626400 pts_time:6.96 dts:622800 dts_time:6.92 duration:0 duration_time:0 stream_index:0
[mpeg @ 0x555583603700] buffer underflow st=0 bufi=963 size=2052
pts:630000 pts_time:7 dts:626400 dts_time:6.96 duration:0 duration_time:0 stream_index:0
[mpeg @ 0x555583603700] buffer underflow st=0 bufi=943 size=2262
pts:633600 pts_time:7.04 dts:630000 dts_time:7 duration:0 duration_time:0 stream_index:0
[mpeg @ 0x555583603700] buffer underflow st=0 bufi=713 size=1685
pts:637200 pts_time:7.08 dts:633600 dts_time:7.04 duration:0 duration_time:0 stream_index:0
[mpeg @ 0x555583603700] buffer underflow st=0 bufi=1060 size=2521
pts:640800 pts_time:7.12 dts:637200 dts_time:7.08 duration:0 duration_time:0 stream_index:0
[mpeg @ 0x555583603700] buffer underflow st=0 bufi=571 size=1878
pts:644400 pts_time:7.16 dts:640800 dts_time:7.12 duration:0 duration_time:0 stream_index:0
[mpeg @ 0x555583603700] buffer underflow st=0 bufi=725 size=10779
[mpeg @ 0x555583603700] buffer underflow st=0 bufi=2766 size=10779
[mpeg @ 0x555583603700] buffer underflow st=0 bufi=4807 size=10779
[mpeg @ 0x555583603700] buffer underflow st=0 bufi=6848 size=10779
[mpeg @ 0x555583603700] buffer underflow st=0 bufi=8889 size=10779
pts:648000 pts_time:7.2 dts:644400 dts_time:7.16 duration:0 duration_time:0 stream_index:0
[mpeg @ 0x555583603700] buffer underflow st=0 bufi=142 size=3415
[mpeg @ 0x555583603700] buffer underflow st=0 bufi=2183 size=3415
pts:651600 pts_time:7.24 dts:648000 dts_time:7.2 duration:0 duration_time:0 stream_index:0
[mpeg @ 0x555583603700] buffer underflow st=0 bufi=800 size=2343
pts:655200 pts_time:7.28 dts:651600 dts_time:7.24 duration:0 duration_time:0 stream_index:0
[mpeg @ 0x555583603700] buffer underflow st=0 bufi=489 size=3421
[mpeg @ 0x555583603700] buffer underflow st=0 bufi=2518 size=3421
pts:658800 pts_time:7.32 dts:655200 dts_time:7.28 duration:0 duration_time:0 stream_index:0
[mpeg @ 0x555583603700] buffer underflow st=0 bufi=1129 size=2102
pts:662400 pts_time:7.36 dts:658800 dts_time:7.32 duration:0 duration_time:0 stream_index:0
[mpeg @ 0x555583603700] buffer underflow st=0 bufi=1059 size=2029
pts:666000 pts_time:7.4 dts:662400 dts_time:7.36 duration:0 duration_time:0 stream_index:0
[mpeg @ 0x555583603700] buffer underflow st=0 bufi=1062 size=3437
[mpeg @ 0x555583603700] buffer underflow st=0 bufi=3103 size=3437
pts:669600 pts_time:7.44 dts:666000 dts_time:7.4 duration:0 duration_time:0 stream_index:0
[mpeg @ 0x555583603700] buffer underflow st=0 bufi=1698 size=2235
pts:673200 pts_time:7.48 dts:669600 dts_time:7.44 duration:0 duration_time:0 stream_index:0
[mpeg @ 0x555583603700] buffer underflow st=0 bufi=1495 size=2779
pts:676800 pts_time:7.52 dts:673200 dts_time:7.48 duration:0 duration_time:0 stream_index:0
[mpeg @ 0x555583603700] buffer underflow st=0 bufi=748 size=2835
[mpeg @ 0x555583603700] buffer underflow st=0 bufi=2789 size=2835
pts:680400 pts_time:7.56 dts:676800 dts_time:7.52 duration:0 duration_time:0 stream_index:0
[mpeg @ 0x555583603700] buffer underflow st=0 bufi=1986 size=2651
pts:684000 pts_time:7.6 dts:680400 dts_time:7.56 duration:0 duration_time:0 stream_index:0
[mpeg @ 0x555583603700] buffer underflow st=0 bufi=1367 size=2986
pts:687600 pts_time:7.64 dts:684000 dts_time:7.6 duration:0 duration_time:0 stream_index:0
[mpeg @ 0x555583603700] buffer underflow st=0 bufi=413 size=9022
[mpeg @ 0x555583603700] buffer underflow st=0 bufi=2454 size=9022
[mpeg @ 0x555583603700] buffer underflow st=0 bufi=4495 size=9022
[mpeg @ 0x555583603700] buffer underflow st=0 bufi=6536 size=9022
[mpeg @ 0x555583603700] buffer underflow st=0 bufi=8577 size=9022
pts:691200 pts_time:7.68 dts:687600 dts_time:7.64 duration:0 duration_time:0 stream_index:0
pts:694800 pts_time:7.72 dts:691200 dts_time:7.68 duration:0 duration_time:0 stream_index:0
[mpeg @ 0x555583603700] buffer underflow st=0 bufi=228 size=1619
pts:698400 pts_time:7.76 dts:694800 dts_time:7.72 duration:0 duration_time:0 stream_index:0
[mpeg @ 0x555583603700] buffer underflow st=0 bufi=641 size=2342
pts:702000 pts_time:7.8 dts:698400 dts_time:7.76 duration:0 duration_time:0 stream_index:0
[mpeg @ 0x555583603700] buffer underflow st=0 bufi=331 size=1519
pts:705600 pts_time:7.84 dts:702000 dts_time:7.8 duration:0 duration_time:0 stream_index:0
[mpeg @ 0x555583603700] buffer underflow st=0 bufi=844 size=1604
pts:709200 pts_time:7.88 dts:705600 dts_time:7.84 duration:0 duration_time:0 stream_index:0
[mpeg @ 0x555583603700] buffer underflow st=0 bufi=1272 size=2250
pts:712800 pts_time:7.92 dts:709200 dts_time:7.88 duration:0 duration_time:0 stream_index:0
[mpeg @ 0x555583603700] buffer underflow st=0 bufi=1054 size=1744
pts:716400 pts_time:7.96 dts:712800 dts_time:7.92 duration:0 duration_time:0 stream_index:0
[mpeg @ 0x555583603700] buffer underflow st=0 bufi=1342 size=2019
pts:720000 pts_time:8 dts:716400 dts_time:7.96 duration:0 duration_time:0 stream_index:0
[mpeg @ 0x555583603700] buffer underflow st=0 bufi=1355 size=1875
pts:723600 pts_time:8.04 dts:720000 dts_time:8 duration:0 duration_time:0 stream_index:0
[mpeg @ 0x555583603700] buffer underflow st=0 bufi=1512 size=2728
pts:727200 pts_time:8.08 dts:723600 dts_time:8.04 duration:0 duration_time:0 stream_index:0
[mpeg @ 0x555583603700] buffer underflow st=0 bufi=816 size=1925
pts:730800 pts_time:8.12 dts:727200 dts_time:8.08 duration:0 duration_time:0 stream_index:0
[mpeg @ 0x555583603700] buffer underflow st=0 bufi=923 size=10516
[mpeg @ 0x555583603700] buffer underflow st=0 bufi=2964 size=10516
[mpeg @ 0x555583603700] buffer underflow st=0 bufi=5005 size=10516
[mpeg @ 0x555583603700] buffer underflow st=0 bufi=7046 size=10516
[mpeg @ 0x555583603700] buffer underflow st=0 bufi=9087 size=10516
pts:734400 pts_time:8.16 dts:730800 dts_time:8.12 duration:0 duration_time:0 stream_index:0
[mpeg @ 0x555583603700] buffer underflow st=0 bufi=603 size=2862
[mpeg @ 0x555583603700] buffer underflow st=0 bufi=2644 size=2862
pts:738000 pts_time:8.2 dts:734400 dts_time:8.16 duration:0 duration_time:0 stream_index:0
[mpeg @ 0x555583603700] buffer underflow st=0 bufi=1814 size=2062
pts:741600 pts_time:8.24 dts:738000 dts_time:8.2 duration:0 duration_time:0 stream_index:0
[mpeg @ 0x555583603700] buffer underflow st=0 bufi=1784 size=2890
pts:745200 pts_time:8.28 dts:741600 dts_time:8.24 duration:0 duration_time:0 stream_index:0
[mpeg @ 0x555583603700] buffer underflow st=0 bufi=926 size=1834
pts:748800 pts_time:8.32 dts:745200 dts_time:8.28 duration:0 duration_time:0 stream_index:0
[mpeg @ 0x555583603700] buffer underflow st=0 bufi=1124 size=1665
pts:752400 pts_time:8.36 dts:748800 dts_time:8.32 duration:0 duration_time:0 stream_index:0
[mpeg @ 0x555583603700] buffer underflow st=0 bufi=1491 size=2722
pts:756000 pts_time:8.4 dts:752400 dts_time:8.36 duration:0 duration_time:0 stream_index:0
[mpeg @ 0x555583603700] buffer underflow st=0 bufi=801 size=1777
pts:759600 pts_time:8.44 dts:756000 dts_time:8.4 duration:0 duration_time:0 stream_index:0
[mpeg @ 0x555583603700] buffer underflow st=0 bufi=1056 size=2440
pts:763200 pts_time:8.48 dts:759600 dts_time:8.44 duration:0 duration_time:0 stream_index:0
[mpeg @ 0x555583603700] buffer underflow st=0 bufi=648 size=1958
pts:766800 pts_time:8.52 dts:763200 dts_time:8.48 duration:0 duration_time:0 stream_index:0
[mpeg @ 0x555583603700] buffer underflow st=0 bufi=722 size=2253
pts:770400 pts_time:8.56 dts:766800 dts_time:8.52 duration:0 duration_time:0 stream_index:0
[mpeg @ 0x555583603700] buffer underflow st=0 bufi=501 size=2224
pts:774000 pts_time:8.6 dts:770400 dts_time:8.56 duration:0 duration_time:0 stream_index:0
[mpeg @ 0x555583603700] buffer underflow st=0 bufi=309 size=9004
[mpeg @ 0x555583603700] buffer underflow st=0 bufi=2350 size=9004
[mpeg @ 0x555583603700] buffer underflow st=0 bufi=4391 size=9004
[mpeg @ 0x555583603700] buffer underflow st=0 bufi=6432 size=9004
[mpeg @ 0x555583603700] buffer underflow st=0 bufi=8473 size=9004
pts:777600 pts_time:8.64 dts:774000 dts_time:8.6 duration:0 duration_time:0 stream_index:0
[mpeg @ 0x555583603700] buffer underflow st=0 bufi=1501 size=1834
pts:781200 pts_time:8.68 dts:777600 dts_time:8.64 duration:0 duration_time:0 stream_index:0
[mpeg @ 0x555583603700] buffer underflow st=0 bufi=1699 size=2037
pts:784800 pts_time:8.72 dts:781200 dts_time:8.68 duration:0 duration_time:0 stream_index:0
[mpeg @ 0x555583603700] buffer underflow st=0 bufi=1694 size=2776
pts:788400 pts_time:8.76 dts:784800 dts_time:8.72 duration:0 duration_time:0 stream_index:0
[mpeg @ 0x555583603700] buffer underflow st=0 bufi=950 size=1690
pts:792000 pts_time:8.8 dts:788400 dts_time:8.76 duration:0 duration_time:0 stream_index:0
[mpeg @ 0x555583603700] buffer underflow st=0 bufi=1280 size=1945
pts:795600 pts_time:8.84 dts:792000 dts_time:8.8 duration:0 duration_time:0 stream_index:0
[mpeg @ 0x555583603700] buffer underflow st=0 bufi=1367 size=2529
pts:799200 pts_time:8.88 dts:795600 dts_time:8.84 duration:0 duration_time:0 stream_index:0
[mpeg @ 0x555583603700] buffer underflow st=0 bufi=870 size=2057
pts:802800 pts_time:8.92 dts:799200 dts_time:8.88 duration:0 duration_time:0 stream_index:0
[mpeg @ 0x555583603700] buffer underflow st=0 bufi=845 size=2242
pts:806400 pts_time:8.96 dts:802800 dts_time:8.92 duration:0 duration_time:0 stream_index:0
[mpeg @ 0x555583603700] buffer underflow st=0 bufi=635 size=1691
pts:810000 pts_time:9 dts:806400 dts_time:8.96 duration:0 duration_time:0 stream_index:0
[mpeg @ 0x555583603700] buffer underflow st=0 bufi=976 size=2424
pts:813600 pts_time:9.04 dts:810000 dts_time:9 duration:0 duration_time:0 stream_index:0
[mpeg @ 0x555583603700] buffer underflow st=0 bufi=584 size=2025
pts:817200 pts_time:9.08 dts:813600 dts_time:9.04 duration:0 duration_time:0 stream_index:0
[mpeg @ 0x555583603700] buffer underflow st=0 bufi=591 size=10423
[mpeg @ 0x555583603700] buffer underflow st=0 bufi=2632 size=10423
[mpeg @ 0x555583603700] buffer underflow st=0 bufi=4673 size=10423
[mpeg @ 0x555583603700] buffer underflow st=0 bufi=6714 size=10423
[mpeg @ 0x555583603700] buffer underflow st=0 bufi=8755 size=10423
pts:820800 pts_time:9.12 dts:817200 dts_time:9.08 duration:0 duration_time:0 stream_index:0
[mpeg @ 0x555583603700] buffer underflow st=0 bufi=364 size=2866
[mpeg @ 0x555583603700] buffer underflow st=0 bufi=2405 size=2866
pts:824400 pts_time:9.16 dts:820800 dts_time:9.12 duration:0 duration_time:0 stream_index:0
[mpeg @ 0x555583603700] buffer underflow st=0 bufi=1571 size=2069
pts:828000 pts_time:9.2 dts:824400 dts_time:9.16 duration:0 duration_time:0 stream_index:0
[mpeg @ 0x555583603700] buffer underflow st=0 bufi=1534 size=3257
pts:831600 pts_time:9.24 dts:828000 dts_time:9.2 duration:0 duration_time:0 stream_index:0
[mpeg @ 0x555583603700] buffer underflow st=0 bufi=309 size=2034
pts:835200 pts_time:9.28 dts:831600 dts_time:9.24 duration:0 duration_time:0 stream_index:0
[mpeg @ 0x555583603700] buffer underflow st=0 bufi=307 size=2051
pts:838800 pts_time:9.32 dts:835200 dts_time:9.28 duration:0 duration_time:0 stream_index:0
[mpeg @ 0x555583603700] buffer underflow st=0 bufi=288 size=3452
[mpeg @ 0x555583603700] buffer underflow st=0 bufi=2329 size=3452
pts:842400 pts_time:9.36 dts:838800 dts_time:9.32 duration:0 duration_time:0 stream_index:0
[mpeg @ 0x555583603700] buffer underflow st=0 bufi=909 size=2178
pts:846000 pts_time:9.4 dts:842400 dts_time:9.36 duration:0 duration_time:0 stream_index:0
[mpeg @ 0x555583603700] buffer underflow st=0 bufi=763 size=2725
pts:849600 pts_time:9.44 dts:846000 dts_time:9.4 duration:0 duration_time:0 stream_index:0
[mpeg @ 0x555583603700] buffer underflow st=0 bufi=70 size=2686
[mpeg @ 0x555583603700] buffer underflow st=0 bufi=2111 size=2686
pts:853200 pts_time:9.48 dts:849600 dts_time:9.44 duration:0 duration_time:0 stream_index:0
[mpeg @ 0x555583603700] buffer underflow st=0 bufi=1457 size=2563
pts:856800 pts_time:9.52 dts:853200 dts_time:9.48 duration:0 duration_time:0 stream_index:0
[mpeg @ 0x555583603700] buffer underflow st=0 bufi=926 size=2845
pts:860400 pts_time:9.56 dts:856800 dts_time:9.52 duration:0 duration_time:0 stream_index:0
[mpeg @ 0x555583603700] buffer underflow st=0 bufi=113 size=9007
[mpeg @ 0x555583603700] buffer underflow st=0 bufi=2154 size=9007
[mpeg @ 0x555583603700] buffer underflow st=0 bufi=4195 size=9007
[mpeg @ 0x555583603700] buffer underflow st=0 bufi=6236 size=9007
[mpeg @ 0x555583603700] buffer underflow st=0 bufi=8277 size=9007
pts:864000 pts_time:9.6 dts:860400 dts_time:9.56 duration:0 duration_time:0 stream_index:0
[mpeg @ 0x555583603700] buffer underflow st=0 bufi=1302 size=2164
pts:867600 pts_time:9.64 dts:864000 dts_time:9.6 duration:0 duration_time:0 stream_index:0
[mpeg @ 0x555583603700] buffer underflow st=0 bufi=1170 size=2610
pts:871200 pts_time:9.68 dts:867600 dts_time:9.64 duration:0 duration_time:0 stream_index:0
[mpeg @ 0x555583603700] buffer underflow st=0 bufi=592 size=3554
[mpeg @ 0x555583603700] buffer underflow st=0 bufi=2633 size=3554
pts:874800 pts_time:9.72 dts:871200 dts_time:9.68 duration:0 duration_time:0 stream_index:0
[mpeg @ 0x555583603700] buffer underflow st=0 bufi=1111 size=1535
pts:878400 pts_time:9.76 dts:874800 dts_time:9.72 duration:0 duration_time:0 stream_index:0
[mpeg @ 0x555583603700] buffer underflow st=0 bufi=1608 size=2117
pts:882000 pts_time:9.8 dts:878400 dts_time:9.76 duration:0 duration_time:0 stream_index:0
[mpeg @ 0x555583603700] buffer underflow st=0 bufi=1523 size=2625
pts:885600 pts_time:9.84 dts:882000 dts_time:9.8 duration:0 duration_time:0 stream_index:0
[mpeg @ 0x555583603700] buffer underflow st=0 bufi=930 size=2235
pts:889200 pts_time:9.88 dts:885600 dts_time:9.84 duration:0 duration_time:0 stream_index:0
[mpeg @ 0x555583603700] buffer underflow st=0 bufi=727 size=2018
pts:892800 pts_time:9.92 dts:889200 dts_time:9.88 duration:0 duration_time:0 stream_index:0
[mpeg @ 0x555583603700] buffer underflow st=0 bufi=741 size=1810
[mpeg @ 0x555583603700] buffer underflow st=0 bufi=963 size=2051
pts:896400 pts_time:9.96 dts:892800 dts_time:9.92 duration:0 duration_time:0 stream_index:0
pts:900000 pts_time:10 dts:896400 dts_time:9.96 duration:0 duration_time:0 stream_index:0
